<?xml version="1.0" standalone="no"?><!DOCTYPE svg PUBLIC "-//W3C//DTD SVG 1.1//EN" "http://www.w3.org/Graphics/SVG/1.1/DTD/svg11.dtd"><svg t="1555927155363" class="icon" style="" viewBox="0 0 1024 1024" version="1.1" xmlns="http://www.w3.org/2000/svg" p-id="4718" xmlns:xlink="http://www.w3.org/1999/xlink" width="48" height="48"><defs><style type="text/css"></style></defs><path d="M446.976 160.32l9.6 486.784h110.016l10.112-486.784H446.976z m20.8 684.8c12.224 12.352 28.224 18.496 48.128 18.496a58.304 58.304 0 0 0 42.752-18.496 60.8 60.8 0 0 0-0.512-87.744 61.632 61.632 0 0 0-44.736-18.88 63.36 63.36 0 0 0-45.12 18.112 59.904 59.904 0 0 0-18.88 44.992 59.84 59.84 0 0 0 18.368 43.52z" fill="#ff0000" p-id="4719"></path></svg>